<svg xmlns="http://www.w3.org/2000/svg" width="340" height="200" viewBox="0 0 340 200"><style>* {
          font-family: 'Segoe UI', Ubuntu, "Helvetica Neue", Sans-Serif
        }</style><g class="gpsc-root"><rect x="1" y="1" rx="5" ry="5" height="99%" width="99.41176470588235%" stroke="#e4e2e2" stroke-width="1" fill="#ffffff" stroke-opacity="1"></rect><text x="30" y="40" class="gpsc-item" style="--gpsc-i: 0; font-size: 22px; fill: #586e75;">Top Languages by Commit</text><g transform="translate(0,40)"><g transform="translate(40,0)"><rect y="18" width="14" height="14" class="gpsc-item" style="--gpsc-i: 0; stroke-width: 1px;" fill="#3572A5" stroke="#ffffff"></rect><rect y="43.2" width="14" height="14" class="gpsc-item" style="--gpsc-i: 1; stroke-width: 1px;" fill="#f34b7d" stroke="#ffffff"></rect><rect y="68.4" width="14" height="14" class="gpsc-item" style="--gpsc-i: 2; stroke-width: 1px;" fill="#ff5a03" stroke="#ffffff"></rect><rect y="93.60000000000002" width="14" height="14" class="gpsc-item" style="--gpsc-i: 3; stroke-width: 1px;" fill="#41b883" stroke="#ffffff"></rect><rect y="118.80000000000001" width="14" height="14" class="gpsc-item" style="--gpsc-i: 4; stroke-width: 1px;" fill="#3178c6" stroke="#ffffff"></rect><text x="16.8" y="30" class="gpsc-item" style="--gpsc-i: 0; fill: #586e75; font-size: 14px;">Python</text><text x="16.8" y="55.2" class="gpsc-item" style="--gpsc-i: 1; fill: #586e75; font-size: 14px;">C++</text><text x="16.8" y="80.4" class="gpsc-item" style="--gpsc-i: 2; fill: #586e75; font-size: 14px;">Astro</text><text x="16.8" y="105.60000000000002" class="gpsc-item" style="--gpsc-i: 3; fill: #586e75; font-size: 14px;">Vue</text><text x="16.8" y="130.8" class="gpsc-item" style="--gpsc-i: 4; fill: #586e75; font-size: 14px;">TypeScript</text></g><g transform="translate( 230, 80 )"><g class="arc" style="--gpsc-i: 0;"><path d="M3.67394039744206e-15,-60A60,60,0,1,1,-42.18248750691562,-42.66893187940035L-24.60645104570078,-24.890210262983537A35,35,0,1,0,2.1431318985078682e-15,-35Z" style="fill: #3572A5; stroke-width: 2px;" stroke="#ffffff"></path></g><g class="arc" style="--gpsc-i: 1;"><path d="M-42.18248750691562,-42.66893187940035A60,60,0,0,1,-30.198371585550486,-51.84648834377327L-17.615716758237784,-30.24378486720107A35,35,0,0,0,-24.60645104570078,-24.890210262983537Z" style="fill: #f34b7d; stroke-width: 2px;" stroke="#ffffff"></path></g><g class="arc" style="--gpsc-i: 2;"><path d="M-30.198371585550486,-51.84648834377327A60,60,0,0,1,-16.96395090721668,-57.551927592545L-9.895638029209731,-33.571957762317915A35,35,0,0,0,-17.615716758237784,-30.24378486720107Z" style="fill: #ff5a03; stroke-width: 2px;" stroke="#ffffff"></path></g><g class="arc" style="--gpsc-i: 3;"><path d="M-16.96395090721668,-57.551927592545A60,60,0,0,1,-7.547293837420652,-59.52342694882102L-4.402588071828713,-34.721999053478925A35,35,0,0,0,-9.895638029209731,-33.571957762317915Z" style="fill: #41b883; stroke-width: 2px;" stroke="#ffffff"></path></g><g class="arc" style="--gpsc-i: 4;"><path d="M-7.547293837420652,-59.52342694882102A60,60,0,0,1,-1.1021821192326178e-14,-60L-6.429395695523604e-15,-35A35,35,0,0,0,-4.402588071828713,-34.721999053478925Z" style="fill: #3178c6; stroke-width: 2px;" stroke="#ffffff"></path></g></g></g></g></svg>