<svg xmlns="http://www.w3.org/2000/svg" width="860" height="430" viewBox="0 0 860 430" fill="none" role="img" aria-labelledby="title desc">
  <title id="title">rinzler@grid — neofetch</title>
  <desc id="desc">Security Researcher. CVE triage, malware reverse engineering, threat intel.</desc>

  <defs>
    <linearGradient id="emblem" x1="0" y1="0" x2="0" y2="1">
      <stop offset="0%" stop-color="#7dcfff"/>
      <stop offset="50%" stop-color="#7aa2f7"/>
      <stop offset="100%" stop-color="#bb9af7"/>
    </linearGradient>
    <radialGradient id="glow" cx="50%" cy="45%" r="55%">
      <stop offset="0%" stop-color="#7aa2f7" stop-opacity="0.22"/>
      <stop offset="100%" stop-color="#7aa2f7" stop-opacity="0"/>
    </radialGradient>
    <filter id="shadow" x="-20%" y="-20%" width="140%" height="140%">
      <feDropShadow dx="0" dy="8" stdDeviation="16" flood-color="#000000" flood-opacity="0.55"/>
    </filter>
    <style>
      .mono { font-family: 'JetBrains Mono','Cascadia Code','SF Mono',SFMono-Regular,Consolas,'Liberation Mono',Menlo,monospace; }
      .emblem { font-size: 20px; letter-spacing: 0; }
      .info   { font-size: 15.5px; }
      .b      { font-weight: 700; }
      .key    { fill: #7aa2f7; }
      .val    { fill: #c0caf5; }
      .cyan   { fill: #bb9af7; }
      .muted  { fill: #565f89; }
      .cursor { fill: #7aa2f7; animation: blink 1.05s steps(1) infinite; }
      @keyframes blink { 0%,50% { opacity: 1 } 50.01%,100% { opacity: 0 } }
    </style>
  </defs>

  <!-- window -->
  <rect x="2" y="2" width="856" height="426" rx="12" fill="#1a1b26" stroke="#3b4261" stroke-width="1.5" filter="url(#shadow)"/>
  <!-- title bar -->
  <path d="M2 14 A12 12 0 0 1 14 2 H846 A12 12 0 0 1 858 14 V40 H2 Z" fill="#24283b"/>
  <line x1="2" y1="40" x2="858" y2="40" stroke="#3b4261" stroke-width="1.5"/>
  <circle cx="26" cy="21" r="6" fill="#f7768e"/>
  <circle cx="46" cy="21" r="6" fill="#e0af68"/>
  <circle cx="66" cy="21" r="6" fill="#7dcfff"/>
  <text class="mono muted" x="430" y="26" font-size="13.5" text-anchor="middle">rinzler@grid: ~</text>

  <!-- soft glow behind emblem -->
  <ellipse cx="160" cy="230" rx="150" ry="140" fill="url(#glow)"/>

  <!-- ASCII Tron identity disc emblem -->
  <text class="mono emblem" fill="url(#emblem)" x="52" y="118" xml:space="preserve"><tspan x="52" dy="0">      ████████      </tspan><tspan x="52" dy="22">   ██████████████   </tspan><tspan x="52" dy="22">  ████░░░░░░░░████  </tspan><tspan x="52" dy="22"> ███░░░░░░░░░░░░░███ </tspan><tspan x="52" dy="22">███░░░░░████░░░░░███</tspan><tspan x="52" dy="22">███░░░░██████░░░░███</tspan><tspan x="52" dy="22">███░░░░░████░░░░░███</tspan><tspan x="52" dy="22"> ███░░░░░░░░░░░░███ </tspan><tspan x="52" dy="22">  ████░░░░░░░░████  </tspan><tspan x="52" dy="22">   ██████████████   </tspan><tspan x="52" dy="22">      ████████      </tspan></text>

  <!-- neofetch-style info -->
  <text class="mono info b" x="470" y="98"><tspan class="key">rinzler</tspan><tspan class="muted">@</tspan><tspan class="cyan">grid</tspan></text>
  <text class="mono info muted" x="470" y="122">────────────────────────────</text>

  <text class="mono info" x="470" y="152"><tspan class="key b">role</tspan><tspan class="val" x="544">Security Researcher</tspan></text>
  <text class="mono info" x="470" y="178"><tspan class="key b">area</tspan><tspan class="val" x="544">vuln mgmt · detection eng</tspan></text>
  <text class="mono info" x="470" y="204"><tspan class="key b">focus</tspan><tspan class="val" x="544">CVE triage · malware RE · intel</tspan></text>
  <text class="mono info" x="470" y="230"><tspan class="key b">lang</tspan><tspan class="val" x="544">C++ · Python · Rust · KQL · asm</tspan></text>
  <text class="mono info" x="470" y="256"><tspan class="key b">re</tspan><tspan class="val" x="544">IDA Pro · Ghidra · x64dbg · YARA</tspan></text>
  <text class="mono info" x="470" y="282"><tspan class="key b">ships</tspan><tspan class="val" x="544">exploitrank · Ikhor · learnscope</tspan></text>
  <text class="mono info" x="470" y="308"><tspan class="key b">certs</tspan><tspan class="val" x="544">ISO 27001 · ISC2 CC · DP-420</tspan></text>

  <!-- palette -->
  <g>
    <rect x="470" y="332" width="22" height="14" rx="2" fill="#f7768e"/>
    <rect x="498" y="332" width="22" height="14" rx="2" fill="#ff9e64"/>
    <rect x="526" y="332" width="22" height="14" rx="2" fill="#e0af68"/>
    <rect x="554" y="332" width="22" height="14" rx="2" fill="#7dcfff"/>
    <rect x="582" y="332" width="22" height="14" rx="2" fill="#7aa2f7"/>
    <rect x="610" y="332" width="22" height="14" rx="2" fill="#bb9af7"/>
    <rect x="638" y="332" width="22" height="14" rx="2" fill="#9d7cd8"/>
    <rect x="666" y="332" width="22" height="14" rx="2" fill="#c0caf5"/>
  </g>

  <!-- prompt -->
  <text class="mono info" x="52" y="392"><tspan class="key b">visitor@github</tspan><tspan class="muted">:</tspan><tspan class="cyan">~</tspan><tspan class="muted">$</tspan> <tspan class="val">whoami</tspan></text>
  <rect class="cursor" x="278" y="379" width="10" height="16" rx="1"/>
</svg>
